<svg width="20" height="21" viewBox="0 0 20 21" fill="none" xmlns="http://www.w3.org/2000/svg">
<path d="M18.176 8.66133H17.5047V8.62675H10.0047V11.9601H14.7143C14.0272 13.9005 12.181 15.2934 10.0047 15.2934C7.24347 15.2934 5.00472 13.0547 5.00472 10.2934C5.00472 7.53217 7.24347 5.29342 10.0047 5.29342C11.2793 5.29342 12.4389 5.77425 13.3218 6.55967L15.6789 4.20258C14.1906 2.8155 12.1997 1.96008 10.0047 1.96008C5.40264 1.96008 1.67139 5.69133 1.67139 10.2934C1.67139 14.8955 5.40264 18.6267 10.0047 18.6267C14.6068 18.6267 18.3381 14.8955 18.3381 10.2934C18.3381 9.73467 18.2806 9.18925 18.176 8.66133Z" fill="#FFC107"/>
<path d="M2.63232 6.41467L5.37024 8.42258C6.11107 6.58842 7.90524 5.29342 10.0048 5.29342C11.2794 5.29342 12.439 5.77425 13.3219 6.55967L15.679 4.20258C14.1907 2.8155 12.1998 1.96008 10.0048 1.96008C6.80399 1.96008 4.02816 3.76717 2.63232 6.41467Z" fill="#FF3D00"/>
<path d="M10.0047 18.6268C12.1572 18.6268 14.113 17.8031 15.5918 16.4635L13.0126 14.281C12.1478 14.9387 11.0911 15.2944 10.0047 15.2935C7.83719 15.2935 5.99677 13.9114 5.30344 11.9827L2.58594 14.0764C3.9651 16.7752 6.76594 18.6268 10.0047 18.6268Z" fill="#4CAF50"/>
<path d="M18.1761 8.66141H17.5049V8.62683H10.0049V11.9602H14.7145C14.3858 12.8837 13.7938 13.6907 13.0115 14.2814L13.0128 14.2806L15.592 16.4631C15.4095 16.6289 18.3382 14.4602 18.3382 10.2935C18.3382 9.73475 18.2807 9.18933 18.1761 8.66141Z" fill="#1976D2"/>
</svg>
